<svg width="21" height="24" viewBox="0 0 21 24" fill="none" xmlns="http://www.w3.org/2000/svg">
<path d="M10.5 23.3333L0 17.5V5.83333L10.5 0L21 5.83333V17.5L10.5 23.3333ZM7.11667 8.45833C7.56389 7.99167 8.07917 7.63194 8.6625 7.37917C9.24583 7.12639 9.85833 7 10.5 7C11.1417 7 11.7542 7.12639 12.3375 7.37917C12.9208 7.63194 13.4361 7.99167 13.8833 8.45833L17.3833 6.50417L10.5 2.68333L3.61667 6.50417L7.11667 8.45833ZM9.33333 20.0083V16.1875C8.28333 15.9153 7.4375 15.3611 6.79583 14.525C6.15417 13.6889 5.83333 12.7361 5.83333 11.6667C5.83333 11.4528 5.84306 11.2535 5.8625 11.0688C5.88194 10.884 5.92083 10.6944 5.97917 10.5L2.33333 8.45833V16.1292L9.33333 20.0083ZM10.5 14C11.1417 14 11.691 13.7715 12.1479 13.3146C12.6049 12.8576 12.8333 12.3083 12.8333 11.6667C12.8333 11.025 12.6049 10.4757 12.1479 10.0188C11.691 9.56181 11.1417 9.33333 10.5 9.33333C9.85833 9.33333 9.30903 9.56181 8.85208 10.0188C8.39514 10.4757 8.16667 11.025 8.16667 11.6667C8.16667 12.3083 8.39514 12.8576 8.85208 13.3146C9.30903 13.7715 9.85833 14 10.5 14ZM11.6667 20.0083L18.6667 16.1292V8.45833L15.0208 10.5C15.0792 10.6944 15.1181 10.884 15.1375 11.0688C15.1569 11.2535 15.1667 11.4528 15.1667 11.6667C15.1667 12.7361 14.8458 13.6889 14.2042 14.525C13.5625 15.3611 12.7167 15.9153 11.6667 16.1875V20.0083Z" fill="#6F06F9"/>
</svg>
